<svg height="60" viewBox="0 15 162 40" fill="none" xmlns="http://www.w3.org/2000/svg">
<g clip-path="url(#clip0_4_292)">
<path fill-rule="evenodd" clip-rule="evenodd" d="M13.2905 22.6322V35.9143C5.95117 35.9143 0 29.9669 0 22.6322H13.2905Z" fill="#6EAE40"/>
<path fill-rule="evenodd" clip-rule="evenodd" d="M26.581 35.9143V22.6322C19.2417 22.6322 13.2905 28.5796 13.2905 35.9143H26.581Z" fill="#9ACA3F"/>
<path fill-rule="evenodd" clip-rule="evenodd" d="M0 35.9143V49.1965C7.33929 49.1965 13.2905 43.249 13.2905 35.9143H0Z" fill="#539C44"/>
</g>
<path fill-rule="evenodd" clip-rule="evenodd" d="M131.515 25.717H128V29.2304C129.938 29.2304 131.515 27.6537 131.515 25.717ZM52.2014 42.7525C55.4083 42.7525 57.4661 40.8673 58.1349 38.6222L55.1853 37.731C54.7566 38.8964 53.8648 39.719 52.2185 39.719C50.4865 39.719 49.0288 38.4679 48.9431 36.7541H58.255C58.255 36.7416 58.258 36.7006 58.2626 36.6387C58.277 36.4461 58.3064 36.0504 58.3064 35.6744C58.3064 31.5098 55.9056 28.939 51.8756 28.939C48.5487 28.939 45.479 31.6469 45.479 35.7943C45.479 40.1817 48.6344 42.7525 52.2014 42.7525ZM51.9442 31.8011C53.9677 31.8011 54.808 33.0694 54.8595 34.3719H49.0288C49.1146 33.1722 50.1264 31.8011 51.9442 31.8011ZM64.926 40.0617C63.3826 40.0617 62.6281 39.102 62.5423 38.0737L59.5241 38.7421C59.6784 40.2331 61.0332 42.7696 64.9432 42.7696C68.3558 42.7696 70.0021 40.593 70.0021 38.485C70.0021 36.5827 68.7159 35.0231 66.1436 34.4918L64.2915 34.0976C63.5884 33.9605 63.1082 33.5663 63.1082 32.9322C63.1082 32.1781 63.8456 31.6297 64.7717 31.6297C66.2465 31.6297 66.8124 32.6066 66.9153 33.3778L69.8478 32.7094C69.6934 31.3041 68.4416 28.9562 64.7374 28.9562C61.925 28.9562 59.8671 30.8756 59.8671 33.2064C59.8671 35.0402 60.9989 36.5484 63.5198 37.0968L65.2347 37.491C66.2465 37.6967 66.6409 38.1765 66.6409 38.7592C66.6409 39.4448 66.0922 40.0617 64.926 40.0617ZM71.9571 47.3798V29.3504H75.3697V30.9442C75.9528 29.9331 77.4105 29.059 79.3655 29.059C83.1725 29.059 85.3676 31.9725 85.3676 35.8286C85.3676 39.7704 82.8981 42.6839 79.2283 42.6839C77.4276 42.6839 76.1071 41.9641 75.4726 41.0901V47.3798H71.9571ZM78.6795 32.1953C76.8789 32.1953 75.4212 33.5492 75.4212 35.8458C75.4212 38.1423 76.8789 39.5305 78.6795 39.5305C80.4801 39.5305 81.9035 38.1766 81.9035 35.8458C81.9035 33.5492 80.4801 32.1953 78.6795 32.1953ZM93.5476 42.7525C97.4405 42.7525 100.373 39.839 100.373 35.8458C100.373 31.8354 97.4233 28.9562 93.5476 28.939C89.6548 28.939 86.7223 31.8183 86.7223 35.8458C86.7223 39.839 89.6548 42.7525 93.5476 42.7525ZM93.5305 32.1439C95.2454 32.1439 96.8402 33.3778 96.8402 35.8458C96.8402 38.3137 95.2625 39.5476 93.5305 39.5476C91.8156 39.5476 90.2207 38.2794 90.2207 35.8458C90.2207 33.3778 91.8156 32.1439 93.5305 32.1439ZM105.363 42.3583H101.848V29.3503H105.26V30.9613C106.049 29.6074 107.61 29.0076 109.016 29.0076C112.24 29.0076 113.732 31.3041 113.732 34.1662V42.3583H110.199V34.766C110.199 33.3093 109.479 32.1782 107.798 32.1782C106.272 32.1782 105.363 33.3607 105.363 34.8689V42.3583ZM120.832 40.0617C119.288 40.0617 118.534 39.102 118.448 38.0737L115.43 38.7421C115.584 40.2331 116.939 42.7696 120.849 42.7696C124.261 42.7696 125.908 40.593 125.908 38.485C125.908 36.5827 124.622 35.0231 122.049 34.4918L120.197 34.0976C119.494 33.9605 119.014 33.5663 119.014 32.9322C119.014 32.1781 119.751 31.6297 120.677 31.6297C122.152 31.6297 122.718 32.6066 122.821 33.3778L125.753 32.7094C125.599 31.3041 124.347 28.9562 120.643 28.9562C117.831 28.9562 115.773 30.8756 115.773 33.2064C115.773 35.0402 116.905 36.5484 119.425 37.0968L121.14 37.491C122.152 37.6967 122.547 38.1765 122.547 38.7592C122.547 39.4448 121.998 40.0617 120.832 40.0617ZM128 42.3583V32.8637C128 30.9271 129.578 29.3503 131.515 29.3503V42.3583H128ZM138.392 42.3583H141.908L146.967 29.3503H143.263L140.159 38.0737L136.935 29.3503H133.076L138.392 42.3583ZM159.708 38.6222C159.04 40.8673 156.982 42.7525 153.775 42.7525C150.208 42.7525 147.052 40.1817 147.052 35.7943C147.052 31.6469 150.122 28.939 153.449 28.939C157.479 28.939 159.88 31.5098 159.88 35.6744C159.88 36.0504 159.85 36.4461 159.836 36.6387C159.831 36.7006 159.828 36.7416 159.828 36.7541H150.517C150.602 38.4679 152.06 39.719 153.792 39.719C155.438 39.719 156.33 38.8964 156.759 37.731L159.708 38.6222ZM156.433 34.3719C156.381 33.0694 155.541 31.8011 153.518 31.8011C151.7 31.8011 150.688 33.1722 150.602 34.3719H156.433ZM40.1114 31.2698V29.3503H36.6987V42.3583H40.1114V31.2698ZM41.2089 32.7437H44.7245V29.2304C42.7866 29.2304 41.2089 30.8071 41.2089 32.7437Z" fill="#00283B"/>
<defs>
<clipPath id="clip0_4_292">
<rect width="26.5809" height="26.5643" fill="white" transform="translate(0 22.6322)"/>
</clipPath>
</defs>
</svg>
